<svg xmlns="http://www.w3.org/2000/svg" viewBox="0 0 62.29 13.22"><defs><style>.cls-1{fill:#07ff00;}</style></defs><title>fail1</title><g id="Layer_2" data-name="Layer 2"><g id="Ebene_1" data-name="Ebene 1"><path class="cls-1" d="M20.86,10.13h-1V9.19h0A2,2,0,0,1,18,10.28c-1.43,0-2.14-.86-2.14-2.56V4.13h.95V7.57c0,1.26.49,1.9,1.46,1.9A1.48,1.48,0,0,0,19.44,9a2,2,0,0,0,.46-1.36V4.13h1Z"/><path class="cls-1" d="M23.29,2.61a.64.64,0,0,1-.44-.17A.61.61,0,0,1,22.67,2a.61.61,0,0,1,.18-.45.6.6,0,0,1,.44-.18.64.64,0,0,1,.45.18.61.61,0,0,1,.18.45.6.6,0,0,1-.18.44A.64.64,0,0,1,23.29,2.61Zm.47,7.52h-1v-6h1Z"/><path class="cls-1" d="M29.89,4.41l-3.55,4.9h3.51v.82H24.92V9.84L28.47,5H25.26V4.13h4.63Z"/><path class="cls-1" d="M35.31,4.41l-3.55,4.9h3.52v.82H30.35V9.84L33.9,5H30.68V4.13h4.63Z"/><path class="cls-1" d="M40.74,4.41l-3.55,4.9H40.7v.82H35.78V9.84L39.33,5H36.11V4.13h4.63Z"/><path class="cls-1" d="M48.61,10.13H47.52l-.89-2.35H43.07l-.84,2.35H41.14l3.22-8.4h1Zm-2.3-3.24L45,3.31a4.39,4.39,0,0,1-.13-.56h0a2.38,2.38,0,0,1-.14.56L43.4,6.89Z"/><path class="cls-1" d="M50.7,9.27h0V12.9h-1V4.13h1V5.19h0A2.29,2.29,0,0,1,52.78,4a2.19,2.19,0,0,1,1.81.81A3.37,3.37,0,0,1,55.24,7a3.71,3.71,0,0,1-.73,2.41,2.46,2.46,0,0,1-2,.91A2,2,0,0,1,50.7,9.27Zm0-2.42v.84A1.8,1.8,0,0,0,51.16,9a1.65,1.65,0,0,0,1.23.52,1.63,1.63,0,0,0,1.37-.67,3.09,3.09,0,0,0,.5-1.86,2.41,2.41,0,0,0-.47-1.57,1.52,1.52,0,0,0-1.25-.57,1.71,1.71,0,0,0-1.35.59A2.11,2.11,0,0,0,50.68,6.85Z"/><path class="cls-1" d="M57.76,9.27h0V12.9h-1V4.13h1V5.19h0A2.26,2.26,0,0,1,59.83,4a2.18,2.18,0,0,1,1.81.81A3.31,3.31,0,0,1,62.29,7a3.71,3.71,0,0,1-.73,2.41,2.44,2.44,0,0,1-2,.91A2,2,0,0,1,57.76,9.27Zm0-2.42v.84A1.8,1.8,0,0,0,58.22,9a1.72,1.72,0,0,0,2.59-.15,3.09,3.09,0,0,0,.5-1.86,2.41,2.41,0,0,0-.46-1.57,1.54,1.54,0,0,0-1.26-.57,1.7,1.7,0,0,0-1.34.59A2.11,2.11,0,0,0,57.74,6.85Z"/><path class="cls-1" d="M8.8,8.94a3.83,3.83,0,0,0,.7-2.41,4.56,4.56,0,0,0-.94-2.91,2.87,2.87,0,0,0-2.3-1.19,2.19,2.19,0,0,0-1.8.83,3.41,3.41,0,0,0-.67,2.23,5.22,5.22,0,0,0,.89,3.13A2.71,2.71,0,0,0,7,9.85,2.2,2.2,0,0,0,8.8,8.94Z"/><path class="cls-1" d="M6.61,0a6.61,6.61,0,1,0,6.61,6.61A6.61,6.61,0,0,0,6.61,0Zm4,11.31A2.28,2.28,0,0,1,9.09,12a2.4,2.4,0,0,1-.91-.19,9.35,9.35,0,0,1-1.32-.68c-.68-.4-1.13-.65-1.36-.75a1.48,1.48,0,0,0-.65-.16,1,1,0,0,0-.8.39,1.4,1.4,0,0,0-.33.94c0,.13-.05.19-.15.19s-.19-.08-.19-.25V11l.08-.39a2.45,2.45,0,0,1,.6-.84.14.14,0,0,0,0-.09s-.08-.1-.26-.24a3.26,3.26,0,0,1-1-1.35,4.52,4.52,0,0,1-.39-1.85,4.1,4.1,0,0,1,1.23-3.1A4.39,4.39,0,0,1,6.85,2,3.85,3.85,0,0,1,9.72,3.07a3.82,3.82,0,0,1,1.09,2.85,4.81,4.81,0,0,1-.56,2.31,3.57,3.57,0,0,1-.8,1A5.11,5.11,0,0,1,8.23,10c-.14.06-.22.11-.22.15s.12.16.37.29l.65.35A2.16,2.16,0,0,0,10,11a1.24,1.24,0,0,0,.73-.32l.11-.06s.06,0,.1.07a.18.18,0,0,1,0,.13C11,10.92,10.85,11.08,10.58,11.31Z"/></g></g></svg>