<svg xmlns="http://www.w3.org/2000/svg" viewBox="0 0 46.42 23.9"><title>fail2</title><g id="Layer_2" data-name="Layer 2"><g id="Ebene_1" data-name="Ebene 1"><path d="M5,21.13H4v-.94H4a2,2,0,0,1-1.85,1.09C.71,21.28,0,20.42,0,18.72V15.13H1v3.44c0,1.26.48,1.9,1.45,1.9A1.47,1.47,0,0,0,3.56,20,2,2,0,0,0,4,18.59V15.13H5Z"/><path d="M7.41,13.61A.64.64,0,0,1,7,13.44a.65.65,0,0,1,0-.9.6.6,0,0,1,.44-.18.61.61,0,0,1,.45.18.62.62,0,0,1,0,.89A.61.61,0,0,1,7.41,13.61Zm.47,7.52h-1v-6h1Z"/><path d="M14,15.41l-3.55,4.9H14v.82H9.05v-.29L12.6,16H9.38v-.83H14Z"/><path d="M19.44,15.41l-3.55,4.9H19.4v.82H14.47v-.29L18,16H14.81v-.83h4.63Z"/><path d="M24.86,15.41l-3.55,4.9h3.52v.82H19.9v-.29L23.45,16H20.23v-.83h4.63Z"/><path d="M32.74,21.13H31.65l-.89-2.35H27.19l-.83,2.35h-1.1l3.22-8.4h1Zm-2.31-3.24-1.31-3.58a2.44,2.44,0,0,1-.13-.56h0a3.13,3.13,0,0,1-.13.56l-1.31,3.58Z"/><path d="M34.83,20.27h0V23.9h-1V15.13h1v1.06h0A2.26,2.26,0,0,1,36.9,15a2.18,2.18,0,0,1,1.81.81A3.31,3.31,0,0,1,39.36,18a3.71,3.71,0,0,1-.73,2.41,2.44,2.44,0,0,1-2,.91A2,2,0,0,1,34.83,20.27Zm0-2.42v.84A1.8,1.8,0,0,0,35.29,20a1.72,1.72,0,0,0,2.59-.15,3.09,3.09,0,0,0,.5-1.86,2.41,2.41,0,0,0-.46-1.57,1.54,1.54,0,0,0-1.26-.57,1.71,1.71,0,0,0-1.35.59A2.16,2.16,0,0,0,34.81,17.85Z"/><path d="M41.88,20.27h0V23.9h-1V15.13h1v1.06h0A2.29,2.29,0,0,1,44,15a2.2,2.2,0,0,1,1.81.81A3.37,3.37,0,0,1,46.42,18a3.76,3.76,0,0,1-.73,2.41,2.46,2.46,0,0,1-2,.91A2,2,0,0,1,41.88,20.27Zm0-2.42v.84A1.8,1.8,0,0,0,42.34,20a1.73,1.73,0,0,0,2.6-.15,3.09,3.09,0,0,0,.49-1.86A2.41,2.41,0,0,0,45,16.37a1.53,1.53,0,0,0-1.25-.57,1.71,1.71,0,0,0-1.35.59A2.11,2.11,0,0,0,41.86,17.85Z"/><path d="M25.93,8.94a3.89,3.89,0,0,0,.69-2.41,4.56,4.56,0,0,0-.94-2.91,2.86,2.86,0,0,0-2.3-1.19,2.19,2.19,0,0,0-1.8.83,3.46,3.46,0,0,0-.66,2.23,5.15,5.15,0,0,0,.89,3.13,2.68,2.68,0,0,0,2.26,1.23A2.23,2.23,0,0,0,25.93,8.94Z"/><path d="M23.73,0a6.61,6.61,0,1,0,6.61,6.61A6.61,6.61,0,0,0,23.73,0Zm4,11.31a2.3,2.3,0,0,1-1.5.68,2.4,2.4,0,0,1-.91-.19A9.35,9.35,0,0,1,24,11.12c-.68-.4-1.13-.65-1.36-.75a1.45,1.45,0,0,0-.65-.16,1,1,0,0,0-.8.39,1.45,1.45,0,0,0-.32.94c0,.13-.05.19-.16.19s-.18-.08-.18-.25l0-.45.08-.39a2.45,2.45,0,0,1,.6-.84s.06-.07.06-.09A1.18,1.18,0,0,0,21,9.47a3.35,3.35,0,0,1-1-1.35,4.52,4.52,0,0,1-.39-1.85,4.1,4.1,0,0,1,1.23-3.1A4.4,4.4,0,0,1,24,2a3.88,3.88,0,0,1,2.87,1.09,3.86,3.86,0,0,1,1.09,2.85,4.71,4.71,0,0,1-.57,2.31,3.41,3.41,0,0,1-.8,1,4.92,4.92,0,0,1-1.22.74c-.14.06-.21.11-.22.15s.12.16.37.29l.66.35a2.12,2.12,0,0,0,1,.25,1.27,1.27,0,0,0,.74-.32.27.27,0,0,1,.1-.06.13.13,0,0,1,.1.07.2.2,0,0,1,.05.13C28.11,10.92,28,11.08,27.71,11.31Z"/></g></g></svg>