<svg xmlns="http://www.w3.org/2000/svg" viewBox="0 0 340 74.52"><defs><style>.cls-1{fill:#fff;}.cls-2{fill:none;}</style></defs><title>QA_logo_white</title><g id="Layer_2" data-name="Layer 2"><g id="Ebene_1" data-name="Ebene 1"><path class="cls-1" d="M117.27,53.68H112.8V49.25h-.11a9.19,9.19,0,0,1-8.63,5.08q-10,0-10-11.9V25.73h4.44v16q0,8.85,6.77,8.84a6.83,6.83,0,0,0,5.39-2.41,9.25,9.25,0,0,0,2.12-6.32V25.73h4.47Z"/><path class="cls-1" d="M128.6,18.63a2.87,2.87,0,0,1-2-.81,2.79,2.79,0,0,1-.84-2.08,2.85,2.85,0,0,1,2.89-2.92,2.92,2.92,0,0,1,2.09.83,2.92,2.92,0,0,1,0,4.14A2.89,2.89,0,0,1,128.6,18.63Zm2.18,35.05h-4.47V25.73h4.47Z"/><path class="cls-1" d="M159.33,27,142.79,49.85h16.37v3.83H136.21v-1.4l16.54-22.73h-15V25.73h21.56Z"/><path class="cls-1" d="M184.6,27,168.06,49.85h16.37v3.83h-23v-1.4L178,29.55H163V25.73H184.6Z"/><path class="cls-1" d="M209.87,27,193.33,49.85h16.38v3.83h-23v-1.4l16.54-22.73h-15V25.73h21.56Z"/><path class="cls-1" d="M246.55,53.68h-5.08l-4.15-11H220.73l-3.9,11h-5.11l15-39.14h4.75Zm-10.73-15.1-6.14-16.67a16.11,16.11,0,0,1-.6-2.62H229a14.2,14.2,0,0,1-.63,2.62l-6.08,16.67Z"/><path class="cls-1" d="M256.29,49.64h-.11V66.53h-4.47V25.73h4.47v4.91h.11A10.58,10.58,0,0,1,266,25.08a10.25,10.25,0,0,1,8.44,3.75q3,3.75,3,10.05,0,7-3.41,11.23a11.35,11.35,0,0,1-9.33,4.22A9.35,9.35,0,0,1,256.29,49.64Zm-.11-11.27v3.9a8.31,8.31,0,0,0,2.25,5.88,8,8,0,0,0,12.09-.7q2.31-3.11,2.31-8.65a11.23,11.23,0,0,0-2.16-7.31,7.11,7.11,0,0,0-5.84-2.65,7.92,7.92,0,0,0-6.27,2.72A9.94,9.94,0,0,0,256.18,38.37Z"/><path class="cls-1" d="M289.15,49.64H289V66.53h-4.48V25.73H289v4.91h.11a10.58,10.58,0,0,1,9.66-5.56,10.23,10.23,0,0,1,8.43,3.75q3,3.75,3,10.05,0,7-3.41,11.23a11.35,11.35,0,0,1-9.33,4.22A9.34,9.34,0,0,1,289.15,49.64ZM289,38.37v3.9a8.31,8.31,0,0,0,2.25,5.88,8,8,0,0,0,12.09-.7c1.53-2.07,2.31-5,2.31-8.65a11.23,11.23,0,0,0-2.16-7.31,7.12,7.12,0,0,0-5.84-2.65,8,8,0,0,0-6.28,2.72A10,10,0,0,0,289,38.37Z"/><path class="cls-1" d="M61.13,48.11q3.25-4.23,3.25-11.22A21.16,21.16,0,0,0,60,23.36q-4.41-5.58-10.7-5.57a10.18,10.18,0,0,0-8.39,3.85Q37.8,25.48,37.8,32.06q0,8.85,4.14,14.56t10.54,5.72A10.38,10.38,0,0,0,61.13,48.11Z"/><path class="cls-1" d="M50.92,6.47A30.79,30.79,0,1,0,81.71,37.26,30.79,30.79,0,0,0,50.92,6.47ZM69.43,59.16q-3.63,3.17-7,3.17a11.56,11.56,0,0,1-4.26-.88,44.69,44.69,0,0,1-6.14-3.19c-3.16-1.86-5.27-3-6.33-3.51a7.28,7.28,0,0,0-3-.72A4.68,4.68,0,0,0,39,55.83a6.61,6.61,0,0,0-1.52,4.4c0,.58-.23.87-.71.87s-.87-.38-.87-1.15l-.08-2.1.38-1.8A11.41,11.41,0,0,1,39,52.12c.18-.18.27-.32.27-.41s-.42-.5-1.25-1.12a15.31,15.31,0,0,1-4.83-6.32,20.94,20.94,0,0,1-1.81-8.61q0-8.92,5.73-14.45T52,15.69q8.31,0,13.38,5.06t5.07,13.3A22,22,0,0,1,67.85,44.8a16.47,16.47,0,0,1-3.71,4.72,22.53,22.53,0,0,1-5.7,3.41c-.65.29-1,.54-1,.74s.56.72,1.72,1.32l3.06,1.62a9.46,9.46,0,0,0,4.52,1.19,5.74,5.74,0,0,0,3.44-1.5,1,1,0,0,1,.49-.25c.14,0,.3.08.46.3a.89.89,0,0,1,.22.6C71.3,57.33,70.67,58.07,69.43,59.16Z"/><rect class="cls-2" width="340" height="74.52"/></g></g></svg>