<svg xmlns="http://www.w3.org/2000/svg" viewBox="0 0 340 74.52"><defs><style>.cls-1{fill:#00004f;}.cls-2{fill:none;}</style></defs><title>QA_logo_darkblue</title><g id="Layer_2" data-name="Layer 2"><g id="Ebene_1" data-name="Ebene 1"><path class="cls-1" d="M121.93,53.68h-4.47V49.25h-.11a9.19,9.19,0,0,1-8.63,5.08q-10,0-10-11.9V25.73h4.45v16q0,8.85,6.77,8.84a6.85,6.85,0,0,0,5.39-2.41,9.25,9.25,0,0,0,2.12-6.32V25.73h4.47Z"/><path class="cls-1" d="M133.26,18.63a2.85,2.85,0,0,1-2-.81,2.8,2.8,0,0,1-.85-2.08,2.87,2.87,0,0,1,2.9-2.92,2.9,2.9,0,0,1,2.08.83,2.92,2.92,0,0,1,0,4.14A2.87,2.87,0,0,1,133.26,18.63Zm2.18,35.05H131V25.73h4.48Z"/><path class="cls-1" d="M164,27,147.45,49.85h16.37v3.83H140.87v-1.4l16.54-22.73h-15V25.73H164Z"/><path class="cls-1" d="M189.26,27,172.72,49.85h16.37v3.83h-23v-1.4l16.54-22.73h-15V25.73h21.56Z"/><path class="cls-1" d="M214.53,27,198,49.85h16.37v3.83h-23v-1.4L208,29.55H193V25.73h21.56Z"/><path class="cls-1" d="M251.2,53.68h-5.07L242,42.7H225.39l-3.9,11h-5.11l15-39.14h4.75Zm-10.72-15.1-6.14-16.67a16.11,16.11,0,0,1-.6-2.62h-.11a14.2,14.2,0,0,1-.63,2.62l-6.08,16.67Z"/><path class="cls-1" d="M261,49.64h-.11V66.53h-4.48V25.73h4.48v4.91H261a10.58,10.58,0,0,1,9.66-5.56A10.23,10.23,0,0,1,279,28.83q3,3.75,3,10.05,0,7-3.41,11.23a11.35,11.35,0,0,1-9.33,4.22A9.34,9.34,0,0,1,261,49.64Zm-.11-11.27v3.9a8.31,8.31,0,0,0,2.25,5.88,8,8,0,0,0,12.09-.7c1.53-2.07,2.31-5,2.31-8.65a11.23,11.23,0,0,0-2.16-7.31,7.12,7.12,0,0,0-5.84-2.65,8,8,0,0,0-6.28,2.72A10,10,0,0,0,260.84,38.37Z"/><path class="cls-1" d="M293.81,49.64h-.11V66.53h-4.48V25.73h4.48v4.91h.11a10.58,10.58,0,0,1,9.66-5.56,10.23,10.23,0,0,1,8.43,3.75q3,3.75,3,10.05,0,7-3.41,11.23a11.38,11.38,0,0,1-9.33,4.22A9.33,9.33,0,0,1,293.81,49.64Zm-.11-11.27v3.9a8.3,8.3,0,0,0,2.24,5.88,8,8,0,0,0,12.09-.7q2.31-3.11,2.31-8.65c0-3.11-.71-5.55-2.15-7.31a7.13,7.13,0,0,0-5.84-2.65,7.94,7.94,0,0,0-6.28,2.72A10,10,0,0,0,293.7,38.37Z"/><path class="cls-1" d="M65.78,48.11Q69,43.88,69,36.89a21.11,21.11,0,0,0-4.41-13.53q-4.39-5.58-10.69-5.57a10.18,10.18,0,0,0-8.39,3.85q-3.09,3.84-3.09,10.42,0,8.85,4.14,14.56t10.54,5.72A10.36,10.36,0,0,0,65.78,48.11Z"/><path class="cls-1" d="M55.58,6.47A30.79,30.79,0,1,0,86.36,37.26,30.79,30.79,0,0,0,55.58,6.47ZM74.09,59.16q-3.63,3.17-7,3.17a11.56,11.56,0,0,1-4.26-.88,44.69,44.69,0,0,1-6.14-3.19c-3.17-1.86-5.28-3-6.33-3.51a7.35,7.35,0,0,0-3-.72,4.7,4.7,0,0,0-3.73,1.8,6.61,6.61,0,0,0-1.51,4.4c0,.58-.24.87-.71.87s-.87-.38-.87-1.15l-.09-2.1.38-1.8a11.7,11.7,0,0,1,2.79-3.93c.19-.18.28-.32.28-.41s-.42-.5-1.26-1.12a15.38,15.38,0,0,1-4.82-6.32A20.94,20.94,0,0,1,36,35.66q0-8.92,5.73-14.45t15-5.52q8.29,0,13.37,5.06t5.08,13.3A22,22,0,0,1,72.51,44.8a16.64,16.64,0,0,1-3.71,4.72,22.53,22.53,0,0,1-5.7,3.41c-.65.29-1,.54-1,.74s.56.72,1.72,1.32l3,1.62a9.47,9.47,0,0,0,4.53,1.19,5.72,5.72,0,0,0,3.43-1.5,1,1,0,0,1,.49-.25c.15,0,.3.08.47.3A1,1,0,0,1,76,57C76,57.33,75.32,58.07,74.09,59.16Z"/><rect class="cls-2" width="340" height="74.52"/></g></g></svg>