<?xml version="1.0" standalone="no"?>
<!DOCTYPE svg PUBLIC "-//W3C//DTD SVG 20010904//EN"
 "http://www.w3.org/TR/2001/REC-SVG-20010904/DTD/svg10.dtd">
<svg version="1.0" xmlns="http://www.w3.org/2000/svg"
 width="260.000000pt" height="260.000000pt" viewBox="0 0 260.000000 260.000000"
 preserveAspectRatio="xMidYMid meet">
<metadata>
Created by potrace 1.11, written by Peter Selinger 2001-2013
</metadata>
<g transform="translate(0.000000,260.000000) scale(0.100000,-0.100000)"
fill="#000000" stroke="none">
<path d="M1179 2330 c-279 -34 -534 -172 -703 -382 -303 -377 -303 -919 0
-1296 244 -304 661 -449 1025 -358 125 31 202 61 290 112 261 152 436 396 501
699 16 77 16 313 0 390 -65 303 -240 547 -501 699 -177 103 -427 158 -612 136z
m368 -340 c268 -95 423 -365 384 -670 -33 -257 -162 -441 -377 -536 -30 -13
-54 -28 -54 -34 0 -26 208 -129 275 -136 43 -5 58 -2 108 25 33 17 63 28 68
25 21 -13 5 -45 -44 -90 -77 -70 -147 -105 -221 -111 -107 -9 -171 17 -466
185 -168 96 -228 108 -307 60 -39 -23 -83 -108 -83 -160 0 -43 -20 -59 -46
-37 -13 11 -15 28 -12 84 4 60 10 79 40 125 19 30 45 63 56 74 l21 19 -75 70
c-63 58 -82 85 -119 161 -76 158 -95 343 -50 506 55 206 217 372 425 438 94
30 100 31 265 27 124 -2 161 -6 212 -25z"/>
<path d="M1093 1930 c-166 -59 -252 -217 -253 -460 0 -424 242 -717 553 -669
157 25 276 154 318 344 18 85 16 275 -4 357 -51 205 -194 378 -354 428 -83 26
-190 26 -260 0z"/>
</g>
</svg>
