<svg xmlns="http://www.w3.org/2000/svg" viewBox="0 0 1692.73 775"><defs><style>.cls-1{fill:none;}.cls-2,.cls-7{fill:#fff;}.cls-11,.cls-13,.cls-2{stroke:#000;stroke-miterlimit:10;}.cls-3,.cls-7{font-size:30.69px;font-family:MyriadPro-Regular, Myriad Pro;}.cls-4{letter-spacing:0em;}.cls-5{letter-spacing:-0.01em;}.cls-6{fill:#0051a8;}.cls-8{letter-spacing:0em;}.cls-9{fill:#00004f;}.cls-10{letter-spacing:0em;}.cls-11{fill:#00be19;}.cls-12{letter-spacing:-0.01em;}.cls-13{fill:#d20019;}.cls-14{letter-spacing:0em;}</style></defs><title>farbpalette_1</title><g id="Layer_2" data-name="Layer 2"><g id="Ebene_1" data-name="Ebene 1"><rect class="cls-1" width="1692.73" height="775"/><rect class="cls-2" x="70.65" y="47.1" width="227.65" height="682.94"/><text class="cls-3" transform="translate(142.94 322.79)"><tspan class="cls-4">W</tspan><tspan x="25.81" y="0">hi</tspan><tspan class="cls-5" x="50.02" y="0">t</tspan><tspan x="59.99" y="0">e</tspan><tspan x="0" y="36.82">R: 255</tspan><tspan x="0" y="73.65">G: 255</tspan><tspan x="0" y="110.47">B: 255</tspan></text><rect class="cls-6" x="347.89" y="46.03" width="228.36" height="682.94"/><text class="cls-7" transform="translate(384.85 322.79)">Lig<tspan class="cls-8" x="38.82" y="0">h</tspan><tspan class="cls-5" x="55.72" y="0">t</tspan><tspan x="65.7" y="0">er Blue</tspan><tspan x="0" y="36.82">R: 0</tspan><tspan x="0" y="73.65" xml:space="preserve">G:  81</tspan><tspan x="0" y="110.47">B: 168</tspan></text><rect class="cls-9" x="604.09" y="46.03" width="227.65" height="682.94"/><text class="cls-7" transform="translate(642.63 322.79)">Da<tspan class="cls-10" x="35.23" y="0">r</tspan><tspan x="45.38" y="0">ker Blue</tspan><tspan x="0" y="36.82">R: 0</tspan><tspan x="0" y="73.65" xml:space="preserve">G:  0</tspan><tspan x="0" y="110.47">B: 79</tspan></text><rect x="861.71" y="46.03" width="227.65" height="682.94"/><text class="cls-7" transform="translate(934.4 322.79)">Black<tspan x="0" y="36.82">R: 0</tspan><tspan x="0" y="73.65" xml:space="preserve">G:  0</tspan><tspan x="0" y="110.47">B: 0</tspan></text><rect class="cls-11" x="1129.67" y="46.39" width="227.65" height="682.94"/><text class="cls-7" transform="translate(1200.46 322.79)">G<tspan class="cls-12" x="19.82" y="0">r</tspan><tspan x="29.55" y="0">een</tspan><tspan x="0" y="36.82">R: 0</tspan><tspan x="0" y="73.65">G: 190</tspan><tspan x="0" y="110.47">B: 25</tspan></text><rect class="cls-13" x="1394.43" y="46.39" width="227.65" height="682.94"/><text class="cls-7" transform="translate(1465.16 322.79)"><tspan class="cls-14">R</tspan><tspan x="16.63" y="0">ed</tspan><tspan x="0" y="36.82">R: 210</tspan><tspan x="0" y="73.65">G: 0</tspan><tspan x="0" y="110.47">B: 25</tspan></text></g></g></svg>